HIERARCHY
ROOT root
{
	OFFSET	0	13.1	24.9
	CHANNELS 6  Xposition Yposition Zposition Xrotation Yrotation Zrotation
	JOINT spine_1
	{
		OFFSET	0	9.99999	0
		CHANNELS 3  Xrotation Yrotation Zrotation
		JOINT spine_2
		{
			OFFSET	0	112	-10
			CHANNELS 3  Xrotation Yrotation Zrotation
			JOINT spine_3
			{
				OFFSET	0	206.5	19.3
				CHANNELS 3  Xrotation Yrotation Zrotation
				JOINT spine_4
				{
					OFFSET	0	110.4	14.6
					CHANNELS 3  Xrotation Yrotation Zrotation
					JOINT neck_1
					{
						OFFSET	0	71.8	-50.3
						CHANNELS 3  Xrotation Yrotation Zrotation
						JOINT neck_2
						{
							OFFSET	0	86.2	-25.8
							CHANNELS 3  Xrotation Yrotation Zrotation
							JOINT head_ee
							{
								OFFSET	0	179.8	-8.7
								CHANNELS 3  Xrotation Yrotation Zrotation
								End Site
								{
									OFFSET	1	0	0
								}
							}
						}
					}
					JOINT left_clavicle
					{
						OFFSET	-43.2	22.4	-70.8
						CHANNELS 3  Xrotation Yrotation Zrotation
						JOINT left_shoulder
						{
							OFFSET	-93.9	-5.79999	48.7
							CHANNELS 3  Xrotation Yrotation Zrotation
							JOINT left_elbow
							{
								OFFSET	-291.4	-30.8	15.2
								CHANNELS 3  Xrotation Yrotation Zrotation
								JOINT left_lowarm_twist
								{
									OFFSET	-110.7	-3.89999	13.6
									CHANNELS 3  Xrotation Yrotation Zrotation
									JOINT left_hand
									{
										OFFSET	-110.7	-3.89999	13.6
										CHANNELS 3  Xrotation Yrotation Zrotation
										JOINT left_ee
										{
											OFFSET	-80.8	-5.10001	12.1
											CHANNELS 3  Xrotation Yrotation Zrotation
											End Site
											{
												OFFSET	1	0	0
											}
										}
									}
								}
							}
						}
					}
					JOINT right_clavicle
					{
						OFFSET	43.2	22.4	-70.8
						CHANNELS 3  Xrotation Yrotation Zrotation
						JOINT right_shoulder
						{
							OFFSET	93.9	-5.79999	48.7
							CHANNELS 3  Xrotation Yrotation Zrotation
							JOINT right_elbow
							{
								OFFSET	291.4	-30.8	15.2
								CHANNELS 3  Xrotation Yrotation Zrotation
								JOINT right_lowarm_twist
								{
									OFFSET	110.7	-3.89999	13.6
									CHANNELS 3  Xrotation Yrotation Zrotation
									JOINT right_hand
									{
										OFFSET	110.7	-3.89999	13.6
										CHANNELS 3  Xrotation Yrotation Zrotation
										JOINT right_ee
										{
											OFFSET	80.8	-5.10001	12.1
											CHANNELS 3  Xrotation Yrotation Zrotation
											End Site
											{
												OFFSET	1	0	0
											}
										}
									}
								}
							}
						}
					}
				}
			}
		}
	}
	JOINT left_hip
	{
		OFFSET	-82.8	-127.5	0.300001
		CHANNELS 3  Xrotation Yrotation Zrotation
		JOINT left_knee
		{
			OFFSET	-28.2	-396.7	2.2
			CHANNELS 3  Xrotation Yrotation Zrotation
			JOINT left_ankle
			{
				OFFSET	-11.7	-411.3	35.4
				CHANNELS 3  Xrotation Yrotation Zrotation
				JOINT left_toes
				{
					OFFSET	0	-60	-88.6
					CHANNELS 3  Xrotation Yrotation Zrotation
					JOINT left_foot_ee
					{
						OFFSET	-22.5	-16.5	-42.2
						CHANNELS 3  Xrotation Yrotation Zrotation
						End Site
						{
							OFFSET	1	0	0
						}
					}
				}
			}
		}
	}
	JOINT right_hip
	{
		OFFSET	82.8	-127.5	0.300001
		CHANNELS 3  Xrotation Yrotation Zrotation
		JOINT right_knee
		{
			OFFSET	28.2	-396.7	2.2
			CHANNELS 3  Xrotation Yrotation Zrotation
			JOINT right_ankle
			{
				OFFSET	11.7	-411.3	35.4
				CHANNELS 3  Xrotation Yrotation Zrotation
				JOINT right_toes
				{
					OFFSET	0	-60	-88.6
					CHANNELS 3  Xrotation Yrotation Zrotation
					JOINT right_foot_ee
					{
						OFFSET	22.5	-16.5	-42.2
						CHANNELS 3  Xrotation Yrotation Zrotation
						End Site
						{
							OFFSET	1	0	0
						}
					}
				}
			}
		}
	}
}
MOTION
Frames: 5
Frame Time: 0.02
3312.53 709.258 -531.114 -4.30027 49.0409 -3.50012 -0.471164 0.613139 1.91973 -0.469247 0.489764 1.95483 -0.450892 0.0522371 2.01455 -0.456366 0.369679 1.98104 2.07229 13.5745 2.60235 2.49233 21.6938 3.89134 -0.0 0.0 -0.0 3.80845 19.6978 7.94247 -12.0478 -17.5463 62.6948 0.581995 -16.0826 0.0822225 12.0477 0.266257 -1.51313 0.62446 -3.02697 2.9182 -0.0 0.0 -0.0 13.9777 27.1549 -27.803 9.3313 6.98786 -58.4203 0.96958 25.6546 -0.220774 37.0017 0.202568 4.64126 -0.347207 -3.67268 0.752108 0.0 0.0 0.0 26.219 12.8354 -1.87033 -88.7126 -5.95135 10.8022 33.0848 -30.719 -5.22717 29.9035 -0.0 -0.0 -0.0 0.0 -0.0 15.74 18.57 1.65918 -21.4305 -0.275895 -3.25797 15.1912 11.779 2.24341 29.5599 -0.0 -0.0 0.0 0.0 0.0 
3296.8 717.568 -544.658 -6.09028 49.6216 -0.997697 -0.172633 0.605613 1.55768 -0.171425 0.505279 1.59305 -0.156345 0.154747 1.66406 -0.159968 0.415578 1.61876 2.4226 12.8464 0.972006 2.87322 21.7121 1.98635 -0.0 0.0 -0.0 3.86195 20.0611 8.02427 -12.6193 -18.1234 62.6617 0.562595 -15.5729 0.0769312 13.2339 0.275142 -1.66437 0.728523 -2.91188 3.66679 -0.0 0.0 -0.0 14.1279 26.8968 -28.1883 8.21399 6.87528 -57.6883 1.04091 27.2766 -0.252565 38.0851 0.253426 4.77011 0.579847 1.06335 -3.4356 0.0 0.0 0.0 36.7226 9.42097 -4.07267 -91.0073 -6.29207 10.8985 32.9384 -29.0437 -5.10271 28.1219 -0.0 -0.0 -0.0 0.0 -0.0 13.224 17.1775 2.36372 -18.6549 -0.30922 -2.83343 18.6771 14.8773 2.76834 28.4694 -0.0 -0.0 0.0 0.0 0.0 
3283.78 717.526 -549.099 -8.67032 51.2608 0.877988 0.432952 0.60107 1.38848 0.433879 0.511509 1.4239 0.447241 0.21262 1.49796 0.444387 0.446502 1.4456 2.70604 12.3998 -0.0651312 3.18941 21.7515 0.758848 -0.0 0.0 -0.0 3.58766 20.2808 7.61983 -13.4948 -19.0332 62.0047 0.548983 -15.2138 0.0733179 14.0342 0.279368 -1.76652 0.873104 -2.68292 4.73612 -0.0 0.0 -0.0 14.1264 26.783 -28.1997 8.5427 7.47568 -56.5844 1.10946 28.792 -0.284787 38.883 0.29244 4.86439 1.31628 4.58327 -6.94272 0.0 0.0 0.0 39.2091 7.20047 -1.24261 -93.5416 -6.67231 10.9888 35.2356 -28.2249 -5.31018 27.716 -0.0 -0.0 -0.0 0.0 -0.0 12.7008 16.1809 1.88181 -15.7849 -0.322017 -2.39332 20.9416 17.0496 3.11711 27.3308 -0.0 -0.0 0.0 0.0 0.0 
3269.34 705.916 -552.395 -11.3274 53.6289 3.54078 0.861728 0.569357 1.29816 0.862535 0.485605 1.33175 0.874268 0.216349 1.4009 0.871793 0.434861 1.34917 2.30908 11.5292 -0.772616 2.75049 20.8784 -0.0232242 -0.0 0.0 -0.0 3.21551 20.7321 7.08063 -15.1607 -19.5405 61.8231 0.536928 -14.8948 0.070187 14.2902 0.280418 -1.79919 0.981825 -2.64129 5.48669 -0.0 0.0 -0.0 13.883 26.6218 -27.6515 9.98365 8.16319 -55.5312 1.19701 30.6653 -0.328209 39.985 0.348481 4.9937 1.85094 7.2441 -9.46262 0.0 0.0 0.0 45.4081 3.46208 -3.23948 -94.3727 -6.79779 11.0148 36.7978 -28.0648 -5.46623 25.6016 -0.0 -0.0 -0.0 0.0 -0.0 11.7523 15.4771 1.96914 -14.8372 -0.321399 -2.24791 23.4509 17.7235 3.46001 27.1448 -0.0 -0.0 0.0 0.0 0.0 
3257.78 701.247 -557.374 -12.1746 54.8559 4.74185 1.1552 0.559691 1.36562 1.15612 0.471667 1.39846 1.16801 0.197159 1.46262 1.16528 0.425656 1.41314 2.03665 10.9222 -1.27896 2.45263 20.2711 -0.584814 -0.0 0.0 -0.0 2.86116 21.1936 6.5776 -16.5776 -19.7814 61.6733 0.525175 -14.5828 0.0671967 14.4774 0.281094 -1.82309 1.05788 -2.59488 6.01939 -0.0 0.0 -0.0 13.4696 26.3868 -26.7184 10.8134 8.52543 -54.4745 1.25999 31.9694 -0.360944 40.7455 0.388606 5.08232 2.22872 9.09923 -11.252 0.0 0.0 0.0 49.6419 0.938997 -4.11195 -94.5855 -6.82997 11.0211 37.8436 -27.9313 -5.56491 24.1076 -0.0 -0.0 -0.0 0.0 -0.0 11.0608 14.921 1.48929 -14.1658 -0.319506 -2.14492 25.2226 18.1881 3.69623 27.014 -0.0 -0.0 0.0 0.0 0.0 
